<?xml version="1.0" encoding="utf-8"?>
<!-- Generator: Adobe Illustrator 28.2.0, SVG Export Plug-In . SVG Version: 6.00 Build 0)  -->
<svg version="1.1" id="Layer_1" xmlns="http://www.w3.org/2000/svg" xmlns:xlink="http://www.w3.org/1999/xlink" x="0px" y="0px"
	 viewBox="0 0 20.13 20.13" style="enable-background:new 0 0 20.13 20.13;" xml:space="preserve">
<style type="text/css">
	.st0{fill:#325D28;}
	.st1{fill:#FEFEFE;}
	.st2{fill:#D2D0D1;}
	.st3{fill:#FDFDFD;}
	.st4{fill:#FCFCFC;}
	.st5{fill:#8C8889;}
	.st6{fill:#7C7879;}
</style>
<path class="st0" d="M10.07,1.44c4.74,0.02,8.61,3.84,8.61,8.64c0,4.74-3.81,8.59-8.58,8.62c-4.8,0.03-8.65-3.82-8.68-8.59
	C1.4,5.32,5.26,1.46,10.07,1.44z"/>
<path class="st1" d="M10.06,18.08c-4.4,0.01-7.9-3.52-8.01-7.78C1.93,5.76,5.56,2.16,9.87,2.07c4.49-0.09,8.18,3.52,8.19,7.99
	C18.07,14.47,14.49,18.06,10.06,18.08z"/>
<path class="st0" d="M11.85,11.68c0.24,0.29,0.53,0.47,0.91,0.47c0.17,0,0.23,0.1,0.24,0.23c0,0.11-0.01,0.23-0.01,0.34
	c0,0.31,0.04,0.61,0.19,0.89c0.08,0.15,0.22,0.26,0.33,0.39c0.07,0.08,0.14,0.16,0.19,0.25c0.05,0.09,0.04,0.14-0.06,0.18
	c-0.09,0.04-0.11,0.09-0.1,0.19c0.03,0.2,0.01,0.25-0.18,0.32c-0.28,0.11-0.48,0.31-0.64,0.57c-0.09,0.15-0.19,0.3-0.28,0.45
	c-0.13,0.19-0.26,0.21-0.49,0.1c-0.06-0.03-0.1-0.12-0.16-0.1c-0.06,0.02-0.03,0.11-0.06,0.17c-0.03,0.06-0.08,0.1-0.13,0.06
	c-0.28-0.19-0.55-0.06-0.83,0c-0.35,0.08-0.69,0.18-1.05,0.16c-0.2-0.01-0.4-0.07-0.58-0.14c-0.3-0.12-0.61-0.22-0.87-0.42
	c-0.18-0.13-0.31-0.3-0.38-0.52c-0.04-0.14-0.1-0.26-0.2-0.37c-0.29-0.34-0.47-0.73-0.6-1.15c-0.07-0.21-0.16-0.42-0.26-0.62
	c-0.01-0.03-0.02-0.06-0.07-0.07c0.04,0.17,0.08,0.34,0.12,0.51c0.02,0.11,0.05,0.22,0.05,0.33c0,0.04,0,0.08-0.04,0.1
	c-0.04,0.01-0.06-0.03-0.09-0.06c-0.06-0.07-0.11-0.15-0.18-0.21c-0.28-0.28-0.62-0.38-1.01-0.29c-0.16,0.04-0.28,0.14-0.4,0.25
	c-0.05,0.04-0.09,0.12-0.16,0.09C5,13.75,5.01,13.66,5.01,13.6c0-0.62,0.01-1.23,0.15-1.84c0.19-0.81,0.45-1.59,0.88-2.3
	C6.59,8.58,7.3,7.88,8.16,7.32C8.23,7.29,8.3,7.25,8.35,7.19C8.28,7.17,8.22,7.21,8.17,7.23C7.44,7.53,6.84,8,6.33,8.6
	c-0.68,0.79-1.17,1.69-1.45,2.69c-0.19,0.67-0.3,1.36-0.26,2.06c0.04,0.79,0.23,1.56,0.56,2.28c0.01,0.03,0.03,0.06,0.04,0.1
	c0.01,0.03,0.04,0.07,0.01,0.1c-0.04,0.03-0.07-0.02-0.09-0.04c-0.04-0.03-0.07-0.06-0.1-0.1c-0.77-0.95-1.34-1.99-1.6-3.2
	c-0.12-0.59-0.17-1.19-0.16-1.79C3.3,9.48,3.56,8.32,4.05,7.22c0.15-0.35,0.37-0.68,0.58-1c0.02-0.03,0.05-0.06,0.05-0.1
	C4.63,6.11,4.61,6.15,4.59,6.17C4.14,6.62,3.8,7.15,3.55,7.73C3.2,8.55,2.98,9.4,2.9,10.29c-0.06,0.65-0.08,1.31,0.01,1.96
	C3,12.81,3.2,13.32,3.45,13.82c0.06,0.12,0.12,0.24,0.18,0.36c0.02,0.03,0.03,0.07,0.05,0.12c-0.09-0.03-0.13-0.09-0.17-0.14
	c-0.68-0.9-1.1-1.91-1.26-3.04C2.1,10.06,2.23,9.03,2.51,8c0.2-0.73,0.53-1.4,0.87-2.07c0.16-0.32,0.37-0.6,0.65-0.83
	C4.19,4.95,4.37,4.9,4.59,4.95C4.9,5.02,5.21,5.09,5.47,5.3c0.1,0.08,0.21,0.07,0.29-0.02C6.01,5,6.32,4.89,6.68,4.87
	c0.61-0.03,1.17,0.09,1.67,0.46c0.2,0.15,0.34,0.36,0.49,0.55c0.23,0.29,0.43,0.6,0.61,0.92c0.09,0.16,0.09,0.3,0.01,0.47
	c-0.11,0.2-0.25,0.39-0.37,0.59c-0.11,0.17-0.11,0.27,0.01,0.4c0.15,0.16,0.33,0.2,0.49,0.1c0.08-0.05,0.15-0.1,0.22-0.16
	c0.36-0.31,0.78-0.53,1.21-0.71c0.24-0.11,0.47-0.24,0.68-0.41c0.13-0.1,0.23-0.22,0.29-0.38c0.05-0.14,0.14-0.21,0.29-0.21
	c0.17,0,0.34-0.02,0.51-0.03c0.12,0,0.15,0.04,0.1,0.15c-0.03,0.08-0.08,0.16-0.14,0.23c-0.19,0.22-0.4,0.42-0.62,0.62
	c-0.18,0.17-0.43,0.23-0.67,0.25c-0.25,0.01-0.48,0.08-0.71,0.16c-0.13,0.04-0.27,0.08-0.4,0.13C10.27,8,10.24,8.06,10.27,8.15
	c0.02,0.07,0.05,0.14,0.07,0.21c0.05,0.15,0.05,0.31,0.01,0.46C10.3,9,10.33,9.15,10.44,9.29c0.14,0.18,0.21,0.38,0.23,0.6
	c0.01,0.18,0.08,0.33,0.23,0.44c0.14,0.1,0.22,0.26,0.3,0.41c0.1,0.17,0.15,0.19,0.34,0.16c0.22-0.04,0.42-0.13,0.64-0.18
	c0.07-0.02,0.14-0.02,0.21-0.01c0.47,0.04,0.86-0.08,1.15-0.48c0.02-0.03,0.04-0.08,0.08-0.06c0.04,0.02,0.02,0.07,0.02,0.1
	c-0.03,0.21-0.1,0.41-0.2,0.6c-0.1,0.2-0.22,0.4-0.36,0.57c-0.12,0.14-0.14,0.29-0.1,0.46c0.04,0.17-0.02,0.22-0.18,0.17
	c-0.32-0.1-0.65-0.19-0.91-0.42c-0.01-0.01-0.02-0.01-0.04-0.02C11.84,11.65,11.85,11.66,11.85,11.68z"/>
<path class="st0" d="M13.06,12.86c-0.01-0.23,0.07-0.39,0.3-0.48c0.28-0.11,0.51-0.31,0.75-0.47c0.4-0.27,0.81-0.51,1.2-0.8
	c0.64-0.48,1.15-1.07,1.51-1.78c0.03-0.05,0.05-0.09,0.09-0.14c0.01-0.02,0.03-0.04,0.06-0.03c0.02,0.01,0.02,0.03,0.02,0.05
	c0.01,0.13-0.03,0.25-0.06,0.37c-0.28,1.16-0.81,2.19-1.59,3.09c-0.38,0.43-0.77,0.84-1.2,1.22c-0.23,0.2-0.45,0.19-0.66-0.03
	C13.23,13.58,13.09,13.24,13.06,12.86z"/>
<path class="st0" d="M12.33,5.05c0.25,0,0.3,0.06,0.2,0.29c-0.21,0.51-0.43,1.02-0.87,1.39c-0.21,0.18-0.44,0.33-0.69,0.45
	c-0.4,0.18-0.76,0.41-1.06,0.73C9.81,8.01,9.7,8.11,9.58,8.2C9.5,8.26,9.41,8.29,9.3,8.23C9.22,8.18,9.18,8.1,9.21,8
	c0.02-0.07,0.05-0.13,0.08-0.2c0.27-0.5,0.54-1,0.75-1.53c0.06-0.16,0.16-0.32,0.25-0.47c0.13-0.23,0.33-0.39,0.58-0.47
	C11.34,5.17,11.83,5.07,12.33,5.05z"/>
<path class="st2" d="M11.85,11.68c-0.03-0.02-0.06-0.05-0.08-0.1c0.06,0,0.07,0.04,0.1,0.07C11.87,11.66,11.86,11.67,11.85,11.68z"
	/>
<path class="st1" d="M9.73,14.9c0.1-0.04,0.15-0.11,0.22-0.17c0.06-0.06,0.12-0.06,0.18-0.02c0.34,0.25,0.74,0.39,1.14,0.52
	c0.03,0.01,0.08,0.01,0.1,0.06c-0.1-0.01-0.19-0.01-0.29-0.02c-0.1-0.01-0.2-0.02-0.3-0.02c-0.27-0.01-0.55-0.02-0.82-0.04
	c-0.32-0.02-0.55-0.17-0.74-0.42c-0.08-0.1-0.06-0.15,0.06-0.19c0.09-0.03,0.17-0.06,0.25-0.11c0.07-0.05,0.14-0.05,0.2,0.01
	c0.01,0.01,0.02,0.01,0.03,0.02c0.04,0.04,0.11,0.05,0.12,0.11c0.01,0.05-0.06,0.07-0.09,0.11C9.75,14.79,9.71,14.83,9.73,14.9z"/>
<path class="st1" d="M11.23,15.14c-0.14-0.01-0.25-0.08-0.37-0.13c-0.38-0.15-0.73-0.37-1.1-0.56c-0.09-0.04-0.09-0.08-0.03-0.15
	c0.18-0.21,0.48-0.27,0.7-0.01c0.13,0.16,0.27,0.3,0.41,0.46c0.11,0.12,0.22,0.24,0.36,0.34C11.21,15.1,11.23,15.11,11.23,15.14z"/>
<path class="st1" d="M12.27,14.57c0-0.04,0-0.09,0.01-0.13c0.03-0.16,0.17-0.22,0.3-0.12c0.12,0.09,0.22,0.22,0.28,0.36
	c0.06,0.14-0.06,0.42-0.2,0.49c-0.07,0.03-0.12,0-0.17-0.04C12.34,14.99,12.27,14.79,12.27,14.57z"/>
<path class="st1" d="M11.12,11.99c-0.25-0.11-0.47-0.23-0.69-0.34c-0.02-0.01-0.04-0.02-0.06-0.03c-0.26-0.15-0.35-0.36-0.25-0.65
	c0.01-0.02,0.01-0.04,0.03-0.04c0.03,0,0.04,0.02,0.05,0.04c0.11,0.25,0.32,0.43,0.51,0.62c0.12,0.11,0.24,0.21,0.36,0.32
	C11.08,11.92,11.12,11.93,11.12,11.99z"/>
<path class="st3" d="M9.54,11.35c0.04,0.4,0.21,0.59,0.63,0.69c0.27,0.07,0.54,0.09,0.81,0.15c0.04,0.01,0.08,0.02,0.12,0.02
	c-0.01,0.05-0.04,0.03-0.06,0.03c-0.3,0.01-0.59-0.06-0.88-0.11c-0.06-0.01-0.13-0.02-0.19-0.03c-0.29-0.04-0.47-0.22-0.51-0.52
	c-0.03-0.18-0.01-0.35,0.04-0.53c0.04,0,0.03,0.04,0.03,0.06C9.53,11.19,9.52,11.27,9.54,11.35z"/>
<path class="st4" d="M9.37,15.47c-0.32-0.03-0.56-0.18-0.69-0.49c-0.03-0.07-0.07-0.14-0.1-0.21c-0.06-0.11-0.04-0.25,0.04-0.34
	c0.02-0.02,0.04-0.04,0.06-0.03c0.03,0.02,0.01,0.04,0,0.06c-0.07,0.09-0.04,0.18,0.02,0.26c0.03,0.05,0.06,0.1,0.07,0.16
	c0.08,0.24,0.25,0.4,0.48,0.5c0.05,0.02,0.09,0.04,0.14,0.06C9.4,15.47,9.4,15.48,9.37,15.47z"/>
<path class="st5" d="M9.54,11.35c-0.03-0.07-0.01-0.14-0.02-0.21c0-0.03,0.02-0.06-0.02-0.08c0-0.03,0.01-0.04,0.04-0.07
	C9.54,11.11,9.54,11.23,9.54,11.35z"/>
<path class="st6" d="M9.37,15.47c0.01-0.01,0.01-0.01,0.02-0.02c0.02,0,0.06,0.01,0.05,0.03C9.43,15.5,9.39,15.49,9.37,15.47z"/>
<path class="st1" d="M11.9,5.48c0.12,0,0.16,0.04,0.15,0.14c0,0.03-0.01,0.06-0.02,0.09c-0.11,0.25-0.23,0.49-0.39,0.72
	c-0.08,0.12-0.19,0.21-0.32,0.28c-0.29,0.15-0.58,0.32-0.86,0.5c-0.02,0.01-0.04,0.03-0.06,0.03c-0.03,0.01-0.07,0.04-0.1,0.01
	c-0.04-0.03-0.02-0.07,0-0.1c0.16-0.33,0.31-0.66,0.48-0.98c0.06-0.12,0.17-0.21,0.28-0.28c0.23-0.15,0.48-0.27,0.74-0.36
	C11.82,5.5,11.87,5.49,11.9,5.48z"/>
</svg>
